Coordinates
version=1
nRows=14
nColumns=36
inDegrees=yes

Units are S.I. units (second, meters, Newtons, ...)
If the header above contains a line with 'inDegrees', this indicates whether rotational values are in degrees (yes) or radians (no).

endheader
time	pelvis_tilt	pelvis_list	pelvis_rotation	pelvis_tx	pelvis_ty	pelvis_tz	hip_flexion_r	hip_adduction_r	hip_rotation_r	knee_angle_r	knee_angle_r_beta	ankle_angle_r	subtalar_angle_r	mtp_angle_r	hip_flexion_l	hip_adduction_l	hip_rotation_l	knee_angle_l	knee_angle_l_beta	ankle_angle_l	subtalar_angle_l	mtp_angle_l	lumbar_extension	lumbar_bending	lumbar_rotation	arm_flex_r	arm_add_r	arm_rot_r	elbow_flex_r	pro_sup_r	arm_flex_l	arm_add_l	arm_rot_l	elbow_flex_l	pro_sup_l
      4.61666670	     -0.52499897	     -3.20406511	      2.94824113	      0.53604364	      0.80093299	      0.01498424	     45.76061025	     -0.06142840	      3.47081545	      7.18152884	      0.12534132	      0.35636382	    -13.90018690	     -7.49999987	     29.92618807	      3.15862094	     -2.76768395	     69.43361237	      1.21184515	     33.86168477	    -10.63312215	     -7.49999987	    -17.42779467	     -3.61539137	      4.59793217	     47.14422328	     12.90334340	     65.51126843	    129.46347873	     95.25355423	     39.94356046	     10.10075344	     74.09626939	    128.90968391	     90.46923010
      4.63333330	     -0.35730758	     -3.15327249	      3.10868385	      0.53648728	      0.79674995	      0.01483583	     45.24375201	     -0.28669049	      3.43320794	      6.62044457	      0.11554856	      0.98781978	    -13.21239262	     -7.49999987	     30.35320244	      3.08083297	     -2.90134774	     70.69180340	      1.23380472	     33.25968643	    -10.27811789	     -7.49999987	    -17.75418626	     -3.66073932	      4.68960201	     47.15320214	     12.87339225	     65.74028545	    129.54730568	     93.98878393	     40.02090197	     10.25047117	     74.29335264	    128.98880866	     89.22627607
      4.65000000	     -0.29193222	     -2.72581012	      3.12553039	      0.53624689	      0.79394133	      0.01538517	     45.23265768	     -0.80724884	      3.09667714	      6.45285830	      0.11262362	      1.13388584	    -12.46119061	     -7.49999987	     31.38881956	      3.34690775	     -2.91892358	     72.21136800	      1.26032613	     32.11203293	     -9.55227087	     -7.49999987	    -18.06651338	     -4.13112110	      4.67847708	     47.03037004	     12.89374193	     66.09288216	    129.51125096	     91.83683444	     40.43568448	     10.26972419	     74.14881836	    129.19890104	     87.05996742
      4.66666670	     -0.09331888	     -2.39418900	      3.13703862	      0.54060314	      0.79308589	      0.01246183	     44.86694262	     -1.27716883	      3.21206019	      6.21191466	      0.10841836	      1.11843733	    -12.35760091	     -7.49999987	     31.65224307	      3.58014158	     -3.15501054	     73.57370764	      1.28410344	     31.30084606	     -9.34928488	     -7.49999987	    -18.40411042	     -4.37575330	      4.77330274	     47.07339683	     12.84979828	     66.21262795	    129.32320509	     91.88123199	     40.62724353	     10.36292103	     74.07356946	    129.19029370	     87.10016578
      4.68333330	      0.05374881	     -2.16268018	      3.21581291	      0.53625143	      0.78964537	      0.01524685	     44.56401161	     -1.57189621	      3.31542005	      5.57114699	      0.09723486	      0.56431504	    -12.02056187	     -7.49999987	     32.22504386	      3.70543231	     -3.56611702	     74.50096671	      1.30028716	     30.24119197	     -9.15193875	     -7.49999987	    -18.78020629	     -4.56329495	      4.85704980	     47.79876356	     12.85845175	     66.35557870	    129.11253142	     92.00402393	     41.54721865	     10.63723229	     73.53974715	    129.22550169	     87.21747120
      4.70000000	      0.15782735	     -2.21324951	      3.47343540	      0.53632889	      0.78562133	      0.01507068	     44.37881691	     -1.73772120	      2.89323174	      5.15954243	      0.09005100	      0.29555264	    -11.32813990	     -7.49999987	     33.24433623	      3.55889080	     -3.68056682	     76.30061314	      1.33169692	     29.67045942	     -9.35706592	     -7.49999987	    -19.12395954	     -4.36056001	      4.83160941	     48.33714027	     12.80063915	     66.67356922	    129.05953924	     89.11513854	     41.93275371	     10.57727893	     72.80551460	    129.57574862	     84.47889870
      4.71666670	      0.48104730	     -2.32096933	      3.66797024	      0.54000732	      0.78398307	      0.01153394	     43.98281650	     -1.77944697	      3.51935142	      5.22509049	      0.09119503	     -0.13565024	    -11.90508989	     -7.49999987	     33.04562070	      3.62301362	     -3.65922558	     76.99217354	      1.34376693	     29.55569555	     -9.24388337	     -7.49999987	    -19.51390973	     -4.06893961	      4.76382600	     48.70593365	     12.87085484	     66.73358163	    128.81569559	     94.30436378	     41.78632319	     10.82553557	     72.40832305	    129.36988956	     90.77565990
      4.73333330	      0.48314020	     -2.51091200	      3.89582603	      0.53614465	      0.78156460	      0.01411786	     43.93860601	     -1.69404703	      4.04750770	      5.17397868	      0.09030296	     -0.07783210	    -11.96755457	     -7.49999987	     33.44431946	      3.66065618	     -3.50548172	     77.50478518	      1.35271369	     29.40473250	     -9.85298548	     -7.49999987	    -19.54414859	     -3.76889192	      4.91285094	     49.01581397	     12.70071184	     66.63619114	    129.02785026	     94.30386011	     41.67784269	     10.78216136	     72.23280341	    129.45493988	     90.77968007
      4.75000000	      0.64444875	     -2.47518502	      3.72076546	      0.53961380	      0.77946470	      0.01149587	     43.73686908	     -1.71389550	      4.32747876	      5.40617450	      0.09435554	      0.04170777	    -12.06868503	     -7.49999987	     33.37807830	      4.13591040	     -3.14570251	     78.05059002	      1.36223978	     29.74141923	    -10.26635870	     -7.49999987	    -19.53352691	     -3.66131999	      5.12438899	     49.11365594	     12.71120425	     66.58878279	    129.08314106	     94.30112986	     41.39422500	     10.66014939	     72.14031986	    129.46336546	     90.78193364
      4.76666670	      0.59113509	     -2.41424050	      3.63937315	      0.53939352	      0.77728802	      0.01183624	     43.62093925	     -1.74176016	      5.11002411	      5.07255444	      0.08853278	     -0.33576247	    -12.63428955	     -7.49999987	     33.53712254	      4.73836540	     -2.64660499	     78.28792861	      1.36638212	     29.72704711	    -11.46573596	     -7.49999987	    -19.19804769	     -3.52937599	      5.23707028	     49.31578810	     12.74296107	     66.58427681	    129.30996325	     93.86868423	     40.76472894	     10.86900571	     71.73629826	    129.45076721	     90.40808041
      4.78333330	      0.80443486	     -2.36021688	      3.45255449	      0.54257938	      0.77339297	      0.00905346	     43.36751413	     -1.84873453	      5.60272822	      4.98454535	      0.08699673	     -0.21275469	    -12.55040126	     -7.49999987	     33.59923016	      5.32341371	     -2.28016813	     79.02273883	      1.37920698	     30.03831236	    -11.80359853	     -7.49999987	    -19.06472691	     -3.30866967	      5.40638726	     49.28202233	     12.82749466	     66.63669311	    129.42017391	     93.87470036	     40.46302903	     10.97052167	     71.84984226	    129.45227130	     90.42484098
      4.80000000	      0.76455756	     -2.50841222	      3.28752869	      0.54244126	      0.77379215	      0.00914812	     43.26310598	     -1.71557058	      6.13353529	      4.85328405	      0.08470579	     -0.81939823	    -13.38955753	     -7.49999987	     33.81022428	      5.70704182	     -1.74638683	     79.52656696	      1.38800044	     29.77779704	    -13.14593875	     -7.49999987	    -18.69264762	     -2.92683895	      5.89315037	     48.99522842	     12.77138125	     66.76790570	    129.90037884	     93.33388977	     39.95316187	     11.47390393	     72.28052523	    129.38550826	     90.01066765
      4.81666670	      0.83496295	     -2.53340105	      3.22777135	      0.54171460	      0.77315561	      0.00951733	     43.39636909	     -1.73329144	      5.85265595	      5.06344646	      0.08837381	     -0.67831192	    -12.88436105	     -7.49999987	     34.02345370	      5.94064052	     -1.44627857	     80.04555224	      1.39705844	     29.60872339	    -13.41567125	     -7.49999987	    -18.32127226	     -2.59829034	      6.21042220	     48.80736240	     12.89814985	     66.68999562	    129.71109994	     92.23757989	     39.92457696	     11.74528632	     72.36204495	    129.21054793	     88.97125416
      4.83333330	      0.99535322	     -2.42121646	      3.43304896	      0.54135034	      0.77201524	      0.00971102	     42.98084116	     -1.97069135	      6.07854786	      4.27978538	      0.07469635	     -0.96633084	    -12.87418004	     -7.49999987	     34.06162121	      6.43063860	     -0.91009872	     80.37618016	      1.40282898	     28.87209824	    -14.00527225	     -7.49999987	    -18.20934141	     -2.42663900	      6.66744768	     48.71701320	     12.72806191	     66.53024854	    130.29693199	     91.43091510	     40.44115296	     12.07670804	     72.88299248	    129.55189273	     88.13732143
